<svg xmlns="http://www.w3.org/2000/svg" xmlns:xlink="http://www.w3.org/1999/xlink" viewBox="0 0 236.74 57.11"><defs><style>.cls-1{mask:url(#mask);}.cls-2,.cls-6{mix-blend-mode:multiply;}.cls-2{fill:url(#radial-gradient);}.cls-3{isolation:isolate;}.cls-4{fill:#5a3896;}.cls-5{mask:url(#mask-2);}.cls-6{fill:url(#radial-gradient-2);}.cls-7{filter:url(#luminosity-noclip-2);}.cls-8{filter:url(#luminosity-noclip);}</style><filter id="luminosity-noclip" x="7.46" y="-8232" width="47.35" height="32766" filterUnits="userSpaceOnUse" color-interpolation-filters="sRGB"><feFlood flood-color="#fff" result="bg"/><feBlend in="SourceGraphic" in2="bg"/></filter><mask id="mask" x="7.46" y="-8232" width="47.35" height="32766" maskUnits="userSpaceOnUse"><g class="cls-8"/></mask><radialGradient id="radial-gradient" cx="29.99" cy="-2695.58" r="21.7" gradientTransform="translate(-1.58 475.08) scale(1.09 0.15)" gradientUnits="userSpaceOnUse"><stop offset="0" stop-color="#fff"/><stop offset="0.09" stop-color="#f8f8f8"/><stop offset="0.22" stop-color="#e4e4e4"/><stop offset="0.37" stop-color="#c3c3c3"/><stop offset="0.55" stop-color="#959595"/><stop offset="0.74" stop-color="#5b5b5b"/><stop offset="0.94" stop-color="#141414"/><stop offset="1"/></radialGradient><filter id="luminosity-noclip-2" x="7.46" y="65.69" width="47.35" height="6.54" filterUnits="userSpaceOnUse" color-interpolation-filters="sRGB"><feFlood flood-color="#fff" result="bg"/><feBlend in="SourceGraphic" in2="bg"/></filter><mask id="mask-2" x="0" y="50.57" width="47.35" height="6.54" maskUnits="userSpaceOnUse"><g class="cls-7"><g transform="translate(-7.46 -15.12)"><g class="cls-1"><ellipse class="cls-2" cx="31.13" cy="68.96" rx="23.67" ry="3.27"/></g></g></g></mask><radialGradient id="radial-gradient-2" cx="31.17" cy="68.88" r="16.9" gradientTransform="translate(-7.49 -15.11)" gradientUnits="userSpaceOnUse"><stop offset="0" stop-color="#e1e3e0"/><stop offset="0.37" stop-color="#e8eae7"/><stop offset="0.91" stop-color="#fbfbfb"/><stop offset="1" stop-color="#fff"/></radialGradient></defs><title>logo_fadepof</title><g class="cls-3"><g id="Capa_1" data-name="Capa 1"><path class="cls-4" d="M82.65,25.34v5.32H70.45V38.2H80.61v5.33H70.45V55.12H63.51V25.34Z" transform="translate(-7.46 -15.12)"/><path class="cls-4" d="M110.64,55.12H105.3a2.47,2.47,0,0,1-1.48-.42,2.16,2.16,0,0,1-.81-1.08l-1.75-5.19H90L88.2,53.62a2.39,2.39,0,0,1-.79,1,2.35,2.35,0,0,1-1.45.46H80.57L92.08,25.34h7.06ZM91.55,43.73h8.12l-2.74-8.15c-.17-.52-.38-1.13-.62-1.83s-.47-1.46-.7-2.28c-.22.84-.45,1.61-.68,2.31s-.45,1.32-.65,1.84Z" transform="translate(-7.46 -15.12)"/><path class="cls-4" d="M140,40.22a15.69,15.69,0,0,1-1.11,6,14,14,0,0,1-3.13,4.72,14.3,14.3,0,0,1-4.87,3.1,17.2,17.2,0,0,1-6.31,1.12H113.05V25.34H124.6a17,17,0,0,1,6.31,1.13,14.45,14.45,0,0,1,4.87,3.1,13.92,13.92,0,0,1,3.13,4.71A15.62,15.62,0,0,1,140,40.22Zm-7.06,0a13,13,0,0,0-.57-4,8.6,8.6,0,0,0-1.64-3,7.14,7.14,0,0,0-2.62-1.9,9,9,0,0,0-3.53-.66H120V49.8h4.61a9,9,0,0,0,3.53-.66,7.14,7.14,0,0,0,2.62-1.9,8.6,8.6,0,0,0,1.64-3A13.05,13.05,0,0,0,133,40.22Z" transform="translate(-7.46 -15.12)"/><path class="cls-4" d="M162.47,25.34v5.32H150.26V37.6h9.35v5.11h-9.35V49.8h12.21v5.32H143.33V25.34Z" transform="translate(-7.46 -15.12)"/><path class="cls-4" d="M173.28,45.16v10h-6.9V25.34h10.49a17.14,17.14,0,0,1,5.39.75A10.37,10.37,0,0,1,186,28.14a8,8,0,0,1,2.15,3.09,10.52,10.52,0,0,1,.69,3.84,11.23,11.23,0,0,1-.71,4.09,8.16,8.16,0,0,1-2.18,3.18,10.24,10.24,0,0,1-3.73,2.08,16.94,16.94,0,0,1-5.33.74Zm0-5.21h3.59a5,5,0,0,0,3.87-1.28,5.13,5.13,0,0,0,1.19-3.6,5.26,5.26,0,0,0-.31-1.86,3.66,3.66,0,0,0-.93-1.44,4.12,4.12,0,0,0-1.57-.93,6.84,6.84,0,0,0-2.25-.33h-3.59Z" transform="translate(-7.46 -15.12)"/><path class="cls-4" d="M221.75,40.22a16.1,16.1,0,0,1-1.11,6,14.18,14.18,0,0,1-8,8.05,16.61,16.61,0,0,1-6.31,1.16A16.78,16.78,0,0,1,200,54.28a14.47,14.47,0,0,1-4.88-3.22A14.3,14.3,0,0,1,192,46.23a16.69,16.69,0,0,1,0-12,14.16,14.16,0,0,1,3.14-4.82A14.6,14.6,0,0,1,200,26.18,16.78,16.78,0,0,1,206.33,25a16.42,16.42,0,0,1,6.31,1.17,14.73,14.73,0,0,1,4.87,3.22,14.29,14.29,0,0,1,3.13,4.82A16,16,0,0,1,221.75,40.22Zm-7.06,0a12.86,12.86,0,0,0-.57-4,8.51,8.51,0,0,0-1.64-3,7.09,7.09,0,0,0-2.62-1.88,9.14,9.14,0,0,0-3.53-.65,9.26,9.26,0,0,0-3.56.65,7,7,0,0,0-2.63,1.88,8.52,8.52,0,0,0-1.65,3,14.18,14.18,0,0,0,0,8,8.52,8.52,0,0,0,1.65,3,7,7,0,0,0,2.63,1.87,9.26,9.26,0,0,0,3.56.64,9.14,9.14,0,0,0,3.53-.64,7.07,7.07,0,0,0,2.62-1.87,8.51,8.51,0,0,0,1.64-3A12.94,12.94,0,0,0,214.69,40.22Z" transform="translate(-7.46 -15.12)"/><path class="cls-4" d="M244.2,25.34v5.32H232V38.2h10.16v5.33H232V55.12h-6.93V25.34Z" transform="translate(-7.46 -15.12)"/><path class="cls-4" d="M24.05,61.65a23.35,23.35,0,0,1-13.28-11,4.65,4.65,0,0,1,.63-2.29S14.26,46,16,45.55c1.3-.34,2.3-.93,1.1-2.15-.91-.36-2.67,1-3.56-.23-.75-1-.67-3.11.1-4.69a24,24,0,0,1,3.65-4.66c.65-1,.24-1.55-.66-1.06-.24-.1-2.6,2-3.43,2.8A18.67,18.67,0,0,0,11.83,37a33.64,33.64,0,0,1,3.82-6c.36-.36-.47-1.25-1.63.12a33.19,33.19,0,0,0-3.13,4.69,22.65,22.65,0,0,1,2.46-4.31c-.71-1.27-3.87,4.93-4,5.22A48.71,48.71,0,0,0,8,41.85a24.24,24.24,0,0,1,.65-8.92,24,24,0,0,1,4.75-9.23A10.17,10.17,0,0,1,18.88,22s2.16,3,2.53,4.74c.28,1.32.81,2.35,2.09,1.21.4-.9-.84-2.72.4-3.55,1.07-.7,3.13-.52,4.67.33a24.21,24.21,0,0,1,4.48,3.88c.91.69,1.53.31,1.08-.61.12-.24-1.91-2.69-2.62-3.56A15.88,15.88,0,0,0,30.19,23,33.06,33.06,0,0,1,36,27.14c.34.37,1.27-.42,0-1.64a33.06,33.06,0,0,0-4.52-3.37,22.59,22.59,0,0,1,4.18,2.67c1.29-.65-4.74-4.11-5-4.22-2.6-1-6.87-2.5-10.28-2.59A23.21,23.21,0,0,1,37.46,15.9,23.5,23.5,0,0,1,54.38,33.83a17,17,0,0,0-4.79-6.2c-.24-.2-5.56-4.67-5.71-3.22a23.46,23.46,0,0,1,4,3,34,34,0,0,0-4.74-3.05c-1.61-.79-2,.35-1.55.54a33,33,0,0,1,5.9,4,15.23,15.23,0,0,0-1.82-.73c-1.06-.36-4.07-1.4-4.26-1.2-1-.1-1.15.62-.18,1.23A24.29,24.29,0,0,1,46.41,31c1.33,1.15,2.23,3,2,4.27-.34,1.46-2.48.93-3.18,1.62-.62,1.6.54,1.75,1.87,1.54,1.79-.28,5.31.69,5.31.69a5.81,5.81,0,0,1,2.15,4q-.18.95-.42,1.89A23.8,23.8,0,0,1,33.33,62.69C36.72,61.41,40.77,57.45,43,55c.2-.24,4-6.08,2.52-6.06A22.82,22.82,0,0,1,43,53.19a33,33,0,0,0,2.46-5.07c.61-1.69-.57-2-.7-1.47A34.32,34.32,0,0,1,41.49,53,17,17,0,0,0,42,51.09c.23-1.11.91-4.22.7-4.38,0-1-.75-1.07-1.25,0a23.5,23.5,0,0,1-2.2,5.5c-1,1.47-2.73,2.58-4,2.44-1.49-.17-1.21-2.36-2-3-1.66-.42-1.66.74-1.31,2,.49,1.74-.07,5.37-.07,5.37A41.49,41.49,0,0,1,24.05,61.65Z" transform="translate(-7.46 -15.12)"/><g class="cls-5"><ellipse class="cls-6" cx="23.67" cy="53.84" rx="23.67" ry="3.27"/></g></g></g></svg>